<svg width="20" height="23" viewBox="0 0 20 23" fill="none" xmlns="http://www.w3.org/2000/svg">
<path d="M17.1429 15.0938H8.57143C8.17857 15.0938 7.85714 14.7703 7.85714 14.375V2.875C7.85714 2.47969 8.17857 2.15625 8.57143 2.15625H14.5313C14.7188 2.15625 14.9018 2.23262 15.0357 2.36738L17.6473 4.99531C17.7812 5.13008 17.8571 5.31426 17.8571 5.50293V14.375C17.8571 14.7703 17.5357 15.0938 17.1429 15.0938ZM8.57143 17.25H17.1429C18.7188 17.25 20 15.9607 20 14.375V5.50293C20 4.73926 19.7009 4.00703 19.1652 3.46797L16.5491 0.840039C16.0134 0.300977 15.2902 0 14.5313 0H8.57143C6.99554 0 5.71429 1.28926 5.71429 2.875V14.375C5.71429 15.9607 6.99554 17.25 8.57143 17.25ZM2.85714 5.75C1.28125 5.75 0 7.03926 0 8.625V20.125C0 21.7107 1.28125 23 2.85714 23H11.4286C13.0045 23 14.2857 21.7107 14.2857 20.125V19.4062H12.1429V20.125C12.1429 20.5203 11.8214 20.8438 11.4286 20.8438H2.85714C2.46429 20.8438 2.14286 20.5203 2.14286 20.125V8.625C2.14286 8.22969 2.46429 7.90625 2.85714 7.90625H3.57143V5.75H2.85714Z" fill="#969696"/>
</svg>
